<?xml version="1.0" encoding="UTF-8"?>
<svg width="243px" height="384px" viewBox="0 0 243 384" version="1.1" xmlns="http://www.w3.org/2000/svg" xmlns:xlink="http://www.w3.org/1999/xlink">
    <!-- Generator: Sketch 48.2 (47327) - http://www.bohemiancoding.com/sketch -->
    <title>Slice 1</title>
    <desc>Created with Sketch.</desc>
    <defs></defs>
    <g id="Page-1" stroke="none" stroke-width="1" fill="none" fill-rule="evenodd">
        <g id="scroll" transform="translate(6.000000, 6.000000)" stroke="#FFFFFF" stroke-width="12">
            <path d="M1,89.8 C2.3,78.3 5.3,67.1 10.4,56.4 C19.7,37 34,22.4 53.4,12.8 C68.9,5.2 85.3,1.7 102.3,0.6 C103.4,0.5 104.4,0.2 105.5,0.1 C111.8,0.1 118.1,0.1 124.4,0.1 C131.8,1.1 139.3,1.7 146.6,3.1 C166.8,6.8 185,14.8 199.9,29.1 C215.7,44.3 224.8,63.1 228.1,84.7 C229.2,91.7 229.6,98.9 229.6,106 C229.7,129.4 229.7,152.9 229.7,176.3" id="Shape" stroke-linecap="round" stroke-linejoin="round"></path>
            <path d="M229.8,194.6 C229.8,195.3 229.8,194 229.8,194.6" id="Shape" stroke-linecap="round" stroke-linejoin="round"></path>
            <path d="M229.8,213 C229.8,231.4 229.8,249.7 229.8,268.1 C229.8,284.8 226.8,300.8 219.6,315.9 C210.3,335.2 196.2,349.8 176.8,359.2 C154.7,370 131.1,372.7 106.8,371.8 C88.4,371.1 70.5,367.7 53.8,359.6 C31,348.5 15.6,330.8 6.7,307.2 C1.9,294.4 0.1,281 0.1,267.3 C0.1,215.5 0.1,163.7 0.1,112" id="Shape" stroke-linecap="round" stroke-linejoin="round"></path>
            <path d="M99.8,97.8 C99.8,103.1 99.7,108.4 99.8,113.8 C100,122.9 106.3,129.5 114.8,129.6 C123.5,129.7 130.1,123.1 130.2,113.8 C130.3,103.4 130.3,93 130.2,82.6 C130.1,73.5 123.7,66.9 115.2,66.8 C106.5,66.7 100,73.4 99.8,82.6 C99.7,87.7 99.8,92.7 99.8,97.8 Z" id="Shape"></path>
        </g>
    </g>
</svg>